<mxfile host="app.diagrams.net" modified="2021-08-17T17:35:42.674Z" agent="5.0 (Macintosh; Intel Mac OS X 10_15_7) AppleWebKit/605.1.15 (KHTML, like Gecko) Version/14.0.1 Safari/605.1.15" etag="Oi34paDH7W9i_axTf12_" version="14.9.6" type="github">
  <diagram id="cQPhdjaW5aTsDNrE49nF" name="Page-1">
    <mxGraphModel dx="1426" dy="751" grid="1" gridSize="10" guides="1" tooltips="1" connect="1" arrows="1" fold="1" page="1" pageScale="1" pageWidth="827" pageHeight="1169" math="0" shadow="0">
      <root>
        <mxCell id="0" />
        <mxCell id="1" parent="0" />
        <mxCell id="A0-cN3aB8qyYW2cuEFgD-1" style="edgeStyle=orthogonalEdgeStyle;rounded=0;orthogonalLoop=1;jettySize=auto;html=1;exitX=0.25;exitY=1;exitDx=0;exitDy=0;entryX=0.25;entryY=0;entryDx=0;entryDy=0;strokeColor=#FF3333;" edge="1" parent="1" source="A0-cN3aB8qyYW2cuEFgD-5" target="A0-cN3aB8qyYW2cuEFgD-9">
          <mxGeometry relative="1" as="geometry" />
        </mxCell>
        <mxCell id="A0-cN3aB8qyYW2cuEFgD-2" value="A&lt;sub&gt;pp&lt;/sub&gt;,&lt;br&gt;A&lt;sub&gt;ph&lt;/sub&gt;" style="edgeLabel;html=1;align=center;verticalAlign=middle;resizable=0;points=[];" vertex="1" connectable="0" parent="A0-cN3aB8qyYW2cuEFgD-1">
          <mxGeometry x="-0.1417" relative="1" as="geometry">
            <mxPoint as="offset" />
          </mxGeometry>
        </mxCell>
        <mxCell id="A0-cN3aB8qyYW2cuEFgD-3" style="edgeStyle=orthogonalEdgeStyle;rounded=0;orthogonalLoop=1;jettySize=auto;html=1;exitX=0.5;exitY=0;exitDx=0;exitDy=0;entryX=0.5;entryY=1;entryDx=0;entryDy=0;endArrow=classic;endFill=1;" edge="1" parent="1" source="A0-cN3aB8qyYW2cuEFgD-5" target="A0-cN3aB8qyYW2cuEFgD-22">
          <mxGeometry relative="1" as="geometry" />
        </mxCell>
        <mxCell id="A0-cN3aB8qyYW2cuEFgD-4" value="&lt;span style=&quot;color: rgb(32 , 33 , 34) ; font-family: sans-serif ; font-size: 12.319999694824219px ; text-align: left ; background-color: rgb(248 , 249 , 250)&quot;&gt;γ&lt;sub&gt;p&lt;/sub&gt;&lt;/span&gt;" style="edgeLabel;html=1;align=center;verticalAlign=middle;resizable=0;points=[];" vertex="1" connectable="0" parent="A0-cN3aB8qyYW2cuEFgD-3">
          <mxGeometry x="-0.032" y="-1" relative="1" as="geometry">
            <mxPoint as="offset" />
          </mxGeometry>
        </mxCell>
        <mxCell id="A0-cN3aB8qyYW2cuEFgD-5" value="&lt;b&gt;p&lt;/b&gt;" style="rounded=1;whiteSpace=wrap;html=1;" vertex="1" parent="1">
          <mxGeometry x="220" y="260" width="60" height="30" as="geometry" />
        </mxCell>
        <mxCell id="A0-cN3aB8qyYW2cuEFgD-6" style="edgeStyle=orthogonalEdgeStyle;rounded=0;orthogonalLoop=1;jettySize=auto;html=1;exitX=0.5;exitY=0;exitDx=0;exitDy=0;endArrow=oval;endFill=1;strokeColor=#FF3333;" edge="1" parent="1" source="A0-cN3aB8qyYW2cuEFgD-9">
          <mxGeometry relative="1" as="geometry">
            <mxPoint x="250" y="364" as="sourcePoint" />
            <mxPoint x="250" y="293.9999999999999" as="targetPoint" />
          </mxGeometry>
        </mxCell>
        <mxCell id="A0-cN3aB8qyYW2cuEFgD-7" style="edgeStyle=orthogonalEdgeStyle;rounded=0;orthogonalLoop=1;jettySize=auto;html=1;exitX=0.5;exitY=1;exitDx=0;exitDy=0;endArrow=classic;endFill=1;entryX=0.5;entryY=0;entryDx=0;entryDy=0;" edge="1" parent="1" source="A0-cN3aB8qyYW2cuEFgD-9" target="A0-cN3aB8qyYW2cuEFgD-24">
          <mxGeometry relative="1" as="geometry">
            <mxPoint x="250" y="440" as="targetPoint" />
          </mxGeometry>
        </mxCell>
        <mxCell id="A0-cN3aB8qyYW2cuEFgD-8" value="&lt;span style=&quot;color: rgb(32 , 33 , 34) ; font-family: sans-serif ; font-size: 12.319999694824219px ; text-align: left ; background-color: rgb(248 , 249 , 250)&quot;&gt;γ&lt;/span&gt;&lt;sub style=&quot;color: rgb(32 , 33 , 34) ; font-family: sans-serif ; text-align: left ; background-color: rgb(248 , 249 , 250)&quot;&gt;a&lt;/sub&gt;" style="edgeLabel;html=1;align=center;verticalAlign=middle;resizable=0;points=[];" vertex="1" connectable="0" parent="A0-cN3aB8qyYW2cuEFgD-7">
          <mxGeometry x="-0.2148" y="1" relative="1" as="geometry">
            <mxPoint as="offset" />
          </mxGeometry>
        </mxCell>
        <mxCell id="A0-cN3aB8qyYW2cuEFgD-9" value="&lt;b&gt;a&lt;/b&gt;" style="rounded=1;whiteSpace=wrap;html=1;" vertex="1" parent="1">
          <mxGeometry x="220" y="370" width="60" height="30" as="geometry" />
        </mxCell>
        <mxCell id="A0-cN3aB8qyYW2cuEFgD-10" style="edgeStyle=orthogonalEdgeStyle;rounded=0;orthogonalLoop=1;jettySize=auto;html=1;entryX=1;entryY=0.25;entryDx=0;entryDy=0;strokeColor=#0000CC;" edge="1" parent="1" source="A0-cN3aB8qyYW2cuEFgD-15" target="A0-cN3aB8qyYW2cuEFgD-5">
          <mxGeometry relative="1" as="geometry">
            <Array as="points">
              <mxPoint x="490" y="315" />
              <mxPoint x="490" y="268" />
            </Array>
          </mxGeometry>
        </mxCell>
        <mxCell id="A0-cN3aB8qyYW2cuEFgD-11" value="P&lt;sub&gt;fp&lt;/sub&gt;" style="edgeLabel;html=1;align=center;verticalAlign=middle;resizable=0;points=[];" vertex="1" connectable="0" parent="A0-cN3aB8qyYW2cuEFgD-10">
          <mxGeometry x="-0.1247" relative="1" as="geometry">
            <mxPoint as="offset" />
          </mxGeometry>
        </mxCell>
        <mxCell id="A0-cN3aB8qyYW2cuEFgD-12" style="edgeStyle=orthogonalEdgeStyle;rounded=0;orthogonalLoop=1;jettySize=auto;html=1;exitX=0.5;exitY=1;exitDx=0;exitDy=0;entryX=1;entryY=0.5;entryDx=0;entryDy=0;endArrow=classic;endFill=1;strokeColor=#FF3333;" edge="1" parent="1" source="A0-cN3aB8qyYW2cuEFgD-15" target="A0-cN3aB8qyYW2cuEFgD-9">
          <mxGeometry relative="1" as="geometry" />
        </mxCell>
        <mxCell id="A0-cN3aB8qyYW2cuEFgD-13" value="A&lt;sub&gt;fp&lt;/sub&gt;&lt;span style=&quot;font-size: 9.166666030883789px&quot;&gt;,&amp;nbsp;&lt;/span&gt;A&lt;sub&gt;fh&lt;/sub&gt;" style="edgeLabel;html=1;align=center;verticalAlign=middle;resizable=0;points=[];" vertex="1" connectable="0" parent="A0-cN3aB8qyYW2cuEFgD-12">
          <mxGeometry x="0.0306" y="-1" relative="1" as="geometry">
            <mxPoint as="offset" />
          </mxGeometry>
        </mxCell>
        <mxCell id="A0-cN3aB8qyYW2cuEFgD-14" style="edgeStyle=orthogonalEdgeStyle;rounded=0;orthogonalLoop=1;jettySize=auto;html=1;exitX=0.5;exitY=0;exitDx=0;exitDy=0;endArrow=classic;endFill=1;entryX=0.5;entryY=1;entryDx=0;entryDy=0;" edge="1" parent="1" source="A0-cN3aB8qyYW2cuEFgD-15" target="A0-cN3aB8qyYW2cuEFgD-19">
          <mxGeometry relative="1" as="geometry">
            <mxPoint x="600" y="273" as="targetPoint" />
          </mxGeometry>
        </mxCell>
        <mxCell id="A0-cN3aB8qyYW2cuEFgD-15" value="&lt;b&gt;f&lt;/b&gt;" style="rounded=1;whiteSpace=wrap;html=1;" vertex="1" parent="1">
          <mxGeometry x="540" y="303" width="60" height="30" as="geometry" />
        </mxCell>
        <mxCell id="A0-cN3aB8qyYW2cuEFgD-16" style="edgeStyle=orthogonalEdgeStyle;rounded=0;orthogonalLoop=1;jettySize=auto;html=1;exitX=0.5;exitY=1;exitDx=0;exitDy=0;entryX=0.5;entryY=0;entryDx=0;entryDy=0;endArrow=classic;endFill=1;" edge="1" parent="1" source="A0-cN3aB8qyYW2cuEFgD-18" target="A0-cN3aB8qyYW2cuEFgD-26">
          <mxGeometry relative="1" as="geometry" />
        </mxCell>
        <mxCell id="A0-cN3aB8qyYW2cuEFgD-17" value="&lt;span style=&quot;color: rgb(32 , 33 , 34) ; font-family: sans-serif ; font-size: 12.319999694824219px ; text-align: left ; background-color: rgb(248 , 249 , 250)&quot;&gt;γ&lt;/span&gt;&lt;sub style=&quot;color: rgb(32 , 33 , 34) ; font-family: sans-serif ; text-align: left ; background-color: rgb(248 , 249 , 250)&quot;&gt;m&lt;/sub&gt;" style="edgeLabel;html=1;align=center;verticalAlign=middle;resizable=0;points=[];" vertex="1" connectable="0" parent="A0-cN3aB8qyYW2cuEFgD-16">
          <mxGeometry x="-0.3003" relative="1" as="geometry">
            <mxPoint as="offset" />
          </mxGeometry>
        </mxCell>
        <mxCell id="A0-cN3aB8qyYW2cuEFgD-18" value="&lt;b&gt;m&lt;/b&gt;" style="rounded=1;whiteSpace=wrap;html=1;" vertex="1" parent="1">
          <mxGeometry x="382" y="310" width="60" height="30" as="geometry" />
        </mxCell>
        <mxCell id="A0-cN3aB8qyYW2cuEFgD-19" value="" style="ellipse;whiteSpace=wrap;html=1;aspect=fixed;" vertex="1" parent="1">
          <mxGeometry x="565" y="258" width="10" height="10" as="geometry" />
        </mxCell>
        <mxCell id="A0-cN3aB8qyYW2cuEFgD-20" value="" style="endArrow=none;html=1;" edge="1" parent="1">
          <mxGeometry width="50" height="50" relative="1" as="geometry">
            <mxPoint x="562" y="273" as="sourcePoint" />
            <mxPoint x="578" y="253" as="targetPoint" />
          </mxGeometry>
        </mxCell>
        <mxCell id="A0-cN3aB8qyYW2cuEFgD-21" value="&lt;div class=&quot;page&quot; title=&quot;Page 1&quot;&gt;&lt;div class=&quot;section&quot; style=&quot;background-color: rgb(255 , 255 , 255)&quot;&gt;&lt;div class=&quot;layoutArea&quot;&gt;&lt;div class=&quot;column&quot;&gt;&lt;p&gt;&lt;span style=&quot;font-family: &amp;#34;calibri&amp;#34;&quot;&gt;&lt;font style=&quot;font-size: 10px&quot;&gt;reproduced from Baker et al 2017&lt;/font&gt;&lt;/span&gt;&lt;/p&gt;&lt;/div&gt;&lt;/div&gt;&lt;/div&gt;&lt;/div&gt;" style="text;html=1;align=center;verticalAlign=middle;resizable=0;points=[];autosize=1;strokeColor=none;" vertex="1" parent="1">
          <mxGeometry x="245" y="537" width="150" height="40" as="geometry" />
        </mxCell>
        <mxCell id="A0-cN3aB8qyYW2cuEFgD-22" value="" style="ellipse;whiteSpace=wrap;html=1;aspect=fixed;" vertex="1" parent="1">
          <mxGeometry x="245" y="195" width="10" height="10" as="geometry" />
        </mxCell>
        <mxCell id="A0-cN3aB8qyYW2cuEFgD-23" value="" style="endArrow=none;html=1;" edge="1" parent="1">
          <mxGeometry width="50" height="50" relative="1" as="geometry">
            <mxPoint x="242" y="210.0000000000001" as="sourcePoint" />
            <mxPoint x="258" y="190.0000000000001" as="targetPoint" />
          </mxGeometry>
        </mxCell>
        <mxCell id="A0-cN3aB8qyYW2cuEFgD-24" value="" style="ellipse;whiteSpace=wrap;html=1;aspect=fixed;" vertex="1" parent="1">
          <mxGeometry x="245" y="445" width="10" height="10" as="geometry" />
        </mxCell>
        <mxCell id="A0-cN3aB8qyYW2cuEFgD-25" value="" style="endArrow=none;html=1;" edge="1" parent="1">
          <mxGeometry width="50" height="50" relative="1" as="geometry">
            <mxPoint x="242" y="460.0000000000002" as="sourcePoint" />
            <mxPoint x="258" y="440.0000000000002" as="targetPoint" />
          </mxGeometry>
        </mxCell>
        <mxCell id="A0-cN3aB8qyYW2cuEFgD-26" value="" style="ellipse;whiteSpace=wrap;html=1;aspect=fixed;" vertex="1" parent="1">
          <mxGeometry x="407" y="415" width="10" height="10" as="geometry" />
        </mxCell>
        <mxCell id="A0-cN3aB8qyYW2cuEFgD-27" value="" style="endArrow=none;html=1;" edge="1" parent="1">
          <mxGeometry width="50" height="50" relative="1" as="geometry">
            <mxPoint x="404" y="430.0000000000002" as="sourcePoint" />
            <mxPoint x="420" y="410.0000000000002" as="targetPoint" />
          </mxGeometry>
        </mxCell>
        <mxCell id="A0-cN3aB8qyYW2cuEFgD-28" style="edgeStyle=orthogonalEdgeStyle;rounded=0;orthogonalLoop=1;jettySize=auto;html=1;entryX=1.053;entryY=0.54;entryDx=0;entryDy=0;entryPerimeter=0;endArrow=classic;endFill=1;" edge="1" parent="1" source="A0-cN3aB8qyYW2cuEFgD-30" target="A0-cN3aB8qyYW2cuEFgD-15">
          <mxGeometry relative="1" as="geometry" />
        </mxCell>
        <mxCell id="A0-cN3aB8qyYW2cuEFgD-29" value="F&lt;sub&gt;dam&lt;/sub&gt;" style="edgeLabel;html=1;align=center;verticalAlign=middle;resizable=0;points=[];" vertex="1" connectable="0" parent="A0-cN3aB8qyYW2cuEFgD-28">
          <mxGeometry x="0.0446" y="-1" relative="1" as="geometry">
            <mxPoint x="-1" as="offset" />
          </mxGeometry>
        </mxCell>
        <mxCell id="A0-cN3aB8qyYW2cuEFgD-30" value="Mechanical &lt;br&gt;damage&lt;br&gt;to ECM" style="text;html=1;align=center;verticalAlign=middle;resizable=0;points=[];autosize=1;strokeColor=none;" vertex="1" parent="1">
          <mxGeometry x="670" y="294" width="80" height="50" as="geometry" />
        </mxCell>
        <mxCell id="A0-cN3aB8qyYW2cuEFgD-31" style="edgeStyle=orthogonalEdgeStyle;rounded=0;orthogonalLoop=1;jettySize=auto;html=1;entryX=0;entryY=0.5;entryDx=0;entryDy=0;endArrow=classic;endFill=1;" edge="1" parent="1" source="A0-cN3aB8qyYW2cuEFgD-33" target="A0-cN3aB8qyYW2cuEFgD-5">
          <mxGeometry relative="1" as="geometry">
            <Array as="points">
              <mxPoint x="190" y="275" />
              <mxPoint x="190" y="275" />
            </Array>
          </mxGeometry>
        </mxCell>
        <mxCell id="A0-cN3aB8qyYW2cuEFgD-32" value="P&lt;sub&gt;bp&lt;/sub&gt;" style="edgeLabel;html=1;align=center;verticalAlign=middle;resizable=0;points=[];" vertex="1" connectable="0" parent="A0-cN3aB8qyYW2cuEFgD-31">
          <mxGeometry x="-0.2362" y="-1" relative="1" as="geometry">
            <mxPoint as="offset" />
          </mxGeometry>
        </mxCell>
        <mxCell id="A0-cN3aB8qyYW2cuEFgD-33" value="Background&lt;br&gt;Production" style="text;html=1;align=center;verticalAlign=middle;resizable=0;points=[];autosize=1;strokeColor=none;" vertex="1" parent="1">
          <mxGeometry x="90" y="260" width="80" height="30" as="geometry" />
        </mxCell>
        <mxCell id="A0-cN3aB8qyYW2cuEFgD-34" style="edgeStyle=orthogonalEdgeStyle;rounded=0;orthogonalLoop=1;jettySize=auto;html=1;entryX=0.5;entryY=0;entryDx=0;entryDy=0;endArrow=classic;endFill=1;" edge="1" parent="1" source="A0-cN3aB8qyYW2cuEFgD-36" target="A0-cN3aB8qyYW2cuEFgD-18">
          <mxGeometry relative="1" as="geometry" />
        </mxCell>
        <mxCell id="A0-cN3aB8qyYW2cuEFgD-35" value="M&lt;sub&gt;bp&lt;/sub&gt;" style="edgeLabel;html=1;align=center;verticalAlign=middle;resizable=0;points=[];" vertex="1" connectable="0" parent="A0-cN3aB8qyYW2cuEFgD-34">
          <mxGeometry x="-0.0143" y="1" relative="1" as="geometry">
            <mxPoint x="1" y="8" as="offset" />
          </mxGeometry>
        </mxCell>
        <mxCell id="A0-cN3aB8qyYW2cuEFgD-36" value="Background&lt;br&gt;Production" style="text;html=1;align=center;verticalAlign=middle;resizable=0;points=[];autosize=1;strokeColor=none;" vertex="1" parent="1">
          <mxGeometry x="372" y="205" width="80" height="30" as="geometry" />
        </mxCell>
        <mxCell id="A0-cN3aB8qyYW2cuEFgD-37" style="edgeStyle=orthogonalEdgeStyle;rounded=0;orthogonalLoop=1;jettySize=auto;html=1;exitX=0.75;exitY=1;exitDx=0;exitDy=0;entryX=1;entryY=0.75;entryDx=0;entryDy=0;endArrow=classic;endFill=1;strokeColor=#0000CC;" edge="1" parent="1" source="A0-cN3aB8qyYW2cuEFgD-5" target="A0-cN3aB8qyYW2cuEFgD-5">
          <mxGeometry relative="1" as="geometry">
            <Array as="points">
              <mxPoint x="265" y="310" />
              <mxPoint x="300" y="310" />
              <mxPoint x="300" y="283" />
            </Array>
          </mxGeometry>
        </mxCell>
        <mxCell id="A0-cN3aB8qyYW2cuEFgD-38" value="P&lt;sub&gt;pp&lt;/sub&gt;" style="edgeLabel;html=1;align=center;verticalAlign=middle;resizable=0;points=[];" vertex="1" connectable="0" parent="A0-cN3aB8qyYW2cuEFgD-37">
          <mxGeometry x="-0.0929" y="-1" relative="1" as="geometry">
            <mxPoint x="-12" y="-1" as="offset" />
          </mxGeometry>
        </mxCell>
        <mxCell id="A0-cN3aB8qyYW2cuEFgD-39" value="&lt;div class=&quot;page&quot; title=&quot;Page 1&quot;&gt;&lt;div class=&quot;section&quot; style=&quot;background-color: rgb(255 , 255 , 255)&quot;&gt;&lt;div class=&quot;layoutArea&quot;&gt;&lt;div class=&quot;column&quot;&gt;&lt;p&gt;&lt;span style=&quot;font-family: &amp;#34;calibri&amp;#34;&quot;&gt;&lt;font style=&quot;font-size: 10px&quot;&gt;activation&lt;/font&gt;&lt;/span&gt;&lt;/p&gt;&lt;/div&gt;&lt;/div&gt;&lt;/div&gt;&lt;/div&gt;" style="text;html=1;align=center;verticalAlign=middle;resizable=0;points=[];autosize=1;strokeColor=none;" vertex="1" parent="1">
          <mxGeometry x="575" y="440" width="50" height="40" as="geometry" />
        </mxCell>
        <mxCell id="A0-cN3aB8qyYW2cuEFgD-40" value="&lt;div class=&quot;page&quot; title=&quot;Page 1&quot;&gt;&lt;div class=&quot;section&quot; style=&quot;background-color: rgb(255 , 255 , 255)&quot;&gt;&lt;div class=&quot;layoutArea&quot;&gt;&lt;div class=&quot;column&quot;&gt;&lt;p&gt;&lt;span style=&quot;font-family: &amp;#34;calibri&amp;#34;&quot;&gt;&lt;font style=&quot;font-size: 10px&quot;&gt;inhibition&lt;/font&gt;&lt;/span&gt;&lt;/p&gt;&lt;/div&gt;&lt;/div&gt;&lt;/div&gt;&lt;/div&gt;" style="text;html=1;align=center;verticalAlign=middle;resizable=0;points=[];autosize=1;strokeColor=none;" vertex="1" parent="1">
          <mxGeometry x="575" y="465" width="50" height="40" as="geometry" />
        </mxCell>
        <mxCell id="A0-cN3aB8qyYW2cuEFgD-41" value="&lt;div class=&quot;page&quot; title=&quot;Page 1&quot;&gt;&lt;div class=&quot;section&quot; style=&quot;background-color: rgb(255 , 255 , 255)&quot;&gt;&lt;div class=&quot;layoutArea&quot;&gt;&lt;div class=&quot;column&quot;&gt;&lt;p&gt;&lt;span style=&quot;font-family: &amp;#34;calibri&amp;#34;&quot;&gt;&lt;font style=&quot;font-size: 10px&quot;&gt;degradation&lt;/font&gt;&lt;/span&gt;&lt;/p&gt;&lt;/div&gt;&lt;/div&gt;&lt;/div&gt;&lt;/div&gt;" style="text;html=1;align=center;verticalAlign=middle;resizable=0;points=[];autosize=1;strokeColor=none;" vertex="1" parent="1">
          <mxGeometry x="575" y="495" width="60" height="40" as="geometry" />
        </mxCell>
        <mxCell id="A0-cN3aB8qyYW2cuEFgD-42" value="&lt;div class=&quot;page&quot; title=&quot;Page 1&quot;&gt;&lt;div class=&quot;section&quot; style=&quot;background-color: rgb(255 , 255 , 255)&quot;&gt;&lt;div class=&quot;layoutArea&quot;&gt;&lt;div class=&quot;column&quot;&gt;&lt;p&gt;&lt;span style=&quot;font-family: &amp;#34;calibri&amp;#34;&quot;&gt;&lt;font style=&quot;font-size: 10px&quot;&gt;Positive feedback&lt;/font&gt;&lt;/span&gt;&lt;/p&gt;&lt;/div&gt;&lt;/div&gt;&lt;/div&gt;&lt;/div&gt;" style="text;html=1;align=center;verticalAlign=middle;resizable=0;points=[];autosize=1;strokeColor=none;" vertex="1" parent="1">
          <mxGeometry x="289" y="470" width="90" height="40" as="geometry" />
        </mxCell>
        <mxCell id="A0-cN3aB8qyYW2cuEFgD-43" value="&lt;div class=&quot;page&quot; title=&quot;Page 1&quot;&gt;&lt;div class=&quot;section&quot; style=&quot;background-color: rgb(255 , 255 , 255)&quot;&gt;&lt;div class=&quot;layoutArea&quot;&gt;&lt;div class=&quot;column&quot;&gt;&lt;p&gt;&lt;span style=&quot;font-family: &amp;#34;calibri&amp;#34;&quot;&gt;&lt;font style=&quot;font-size: 10px&quot;&gt;Negative feedback&lt;/font&gt;&lt;/span&gt;&lt;/p&gt;&lt;/div&gt;&lt;/div&gt;&lt;/div&gt;&lt;/div&gt;" style="text;html=1;align=center;verticalAlign=middle;resizable=0;points=[];autosize=1;strokeColor=none;" vertex="1" parent="1">
          <mxGeometry x="292" y="495" width="90" height="40" as="geometry" />
        </mxCell>
        <mxCell id="A0-cN3aB8qyYW2cuEFgD-44" value="" style="ellipse;whiteSpace=wrap;html=1;aspect=fixed;" vertex="1" parent="1">
          <mxGeometry x="562" y="513" width="10" height="10" as="geometry" />
        </mxCell>
        <mxCell id="A0-cN3aB8qyYW2cuEFgD-45" value="" style="endArrow=none;html=1;" edge="1" parent="1">
          <mxGeometry width="50" height="50" relative="1" as="geometry">
            <mxPoint x="559" y="528.0000000000002" as="sourcePoint" />
            <mxPoint x="575" y="508.0000000000002" as="targetPoint" />
          </mxGeometry>
        </mxCell>
        <mxCell id="A0-cN3aB8qyYW2cuEFgD-46" style="edgeStyle=orthogonalEdgeStyle;rounded=0;orthogonalLoop=1;jettySize=auto;html=1;entryX=0;entryY=0.5;entryDx=0;entryDy=0;endArrow=classic;endFill=1;" edge="1" parent="1" target="A0-cN3aB8qyYW2cuEFgD-44">
          <mxGeometry relative="1" as="geometry">
            <mxPoint x="530" y="518" as="sourcePoint" />
            <mxPoint x="470" y="598" as="targetPoint" />
          </mxGeometry>
        </mxCell>
        <mxCell id="A0-cN3aB8qyYW2cuEFgD-47" style="edgeStyle=orthogonalEdgeStyle;rounded=0;orthogonalLoop=1;jettySize=auto;html=1;endArrow=oval;endFill=1;" edge="1" parent="1">
          <mxGeometry relative="1" as="geometry">
            <mxPoint x="530" y="487" as="sourcePoint" />
            <mxPoint x="570" y="487" as="targetPoint" />
          </mxGeometry>
        </mxCell>
        <mxCell id="A0-cN3aB8qyYW2cuEFgD-48" style="edgeStyle=orthogonalEdgeStyle;rounded=0;orthogonalLoop=1;jettySize=auto;html=1;endArrow=classic;endFill=1;" edge="1" parent="1">
          <mxGeometry relative="1" as="geometry">
            <mxPoint x="530" y="463.0000000000001" as="sourcePoint" />
            <mxPoint x="575" y="463.0000000000001" as="targetPoint" />
            <Array as="points">
              <mxPoint x="540" y="463" />
              <mxPoint x="540" y="463" />
            </Array>
          </mxGeometry>
        </mxCell>
        <mxCell id="A0-cN3aB8qyYW2cuEFgD-49" style="edgeStyle=orthogonalEdgeStyle;rounded=0;orthogonalLoop=1;jettySize=auto;html=1;endArrow=none;endFill=0;strokeColor=#0000CC;" edge="1" parent="1">
          <mxGeometry relative="1" as="geometry">
            <mxPoint x="247" y="491.7600000000001" as="sourcePoint" />
            <mxPoint x="292" y="491.7600000000001" as="targetPoint" />
            <Array as="points">
              <mxPoint x="257" y="491.76" />
              <mxPoint x="257" y="491.76" />
            </Array>
          </mxGeometry>
        </mxCell>
        <mxCell id="A0-cN3aB8qyYW2cuEFgD-50" style="edgeStyle=orthogonalEdgeStyle;rounded=0;orthogonalLoop=1;jettySize=auto;html=1;endArrow=none;endFill=0;strokeColor=#FF3333;" edge="1" parent="1">
          <mxGeometry relative="1" as="geometry">
            <mxPoint x="247" y="516.76" as="sourcePoint" />
            <mxPoint x="292" y="516.76" as="targetPoint" />
            <Array as="points">
              <mxPoint x="257" y="516.76" />
              <mxPoint x="257" y="516.76" />
            </Array>
          </mxGeometry>
        </mxCell>
        <mxCell id="A0-cN3aB8qyYW2cuEFgD-51" style="rounded=0;orthogonalLoop=1;jettySize=auto;html=1;strokeColor=#FF3333;edgeStyle=orthogonalEdgeStyle;endArrow=classic;endFill=1;" edge="1" parent="1">
          <mxGeometry relative="1" as="geometry">
            <mxPoint x="442" y="325" as="sourcePoint" />
            <mxPoint x="540" y="325" as="targetPoint" />
            <Array as="points">
              <mxPoint x="442" y="325" />
              <mxPoint x="540" y="325" />
            </Array>
          </mxGeometry>
        </mxCell>
        <mxCell id="A0-cN3aB8qyYW2cuEFgD-52" style="rounded=0;orthogonalLoop=1;jettySize=auto;html=1;edgeStyle=orthogonalEdgeStyle;endArrow=openAsync;endFill=0;strokeColor=#0000CC;exitX=1;exitY=0.5;exitDx=0;exitDy=0;dashed=1;" edge="1" parent="1" source="A0-cN3aB8qyYW2cuEFgD-18">
          <mxGeometry relative="1" as="geometry">
            <mxPoint x="442" y="324.94" as="sourcePoint" />
            <mxPoint x="540" y="325" as="targetPoint" />
            <Array as="points">
              <mxPoint x="540" y="325" />
            </Array>
          </mxGeometry>
        </mxCell>
        <mxCell id="A0-cN3aB8qyYW2cuEFgD-53" style="rounded=0;orthogonalLoop=1;jettySize=auto;html=1;strokeColor=#FF3333;edgeStyle=orthogonalEdgeStyle;endArrow=classic;endFill=1;entryX=0;entryY=0.5;entryDx=0;entryDy=0;" edge="1" parent="1" target="A0-cN3aB8qyYW2cuEFgD-18">
          <mxGeometry relative="1" as="geometry">
            <mxPoint x="280" y="275" as="sourcePoint" />
            <mxPoint x="398" y="274.8" as="targetPoint" />
            <Array as="points">
              <mxPoint x="330" y="275" />
              <mxPoint x="330" y="325" />
            </Array>
          </mxGeometry>
        </mxCell>
        <mxCell id="A0-cN3aB8qyYW2cuEFgD-54" style="rounded=0;orthogonalLoop=1;jettySize=auto;html=1;edgeStyle=orthogonalEdgeStyle;endArrow=openAsync;endFill=0;strokeColor=#0000CC;exitX=1;exitY=0.5;exitDx=0;exitDy=0;dashed=1;entryX=0;entryY=0.5;entryDx=0;entryDy=0;" edge="1" parent="1" source="A0-cN3aB8qyYW2cuEFgD-5" target="A0-cN3aB8qyYW2cuEFgD-18">
          <mxGeometry relative="1" as="geometry">
            <mxPoint x="300" y="274.8" as="sourcePoint" />
            <mxPoint x="398" y="300" as="targetPoint" />
            <Array as="points">
              <mxPoint x="330" y="275" />
              <mxPoint x="330" y="325" />
            </Array>
          </mxGeometry>
        </mxCell>
        <mxCell id="A0-cN3aB8qyYW2cuEFgD-55" value="M&lt;sub&gt;pp&lt;/sub&gt;,&lt;br&gt;M&lt;sub&gt;ph&lt;/sub&gt;" style="edgeLabel;html=1;align=center;verticalAlign=middle;resizable=0;points=[];" vertex="1" connectable="0" parent="A0-cN3aB8qyYW2cuEFgD-54">
          <mxGeometry x="-0.1184" relative="1" as="geometry">
            <mxPoint y="7" as="offset" />
          </mxGeometry>
        </mxCell>
      </root>
    </mxGraphModel>
  </diagram>
</mxfile>
